<mxfile host="65bd71144e" modified="2021-02-17T15:18:26.925Z" agent="5.0 (Windows NT 10.0; Win64; x64) AppleWebKit/537.36 (KHTML, like Gecko) Code/1.53.2 Chrome/87.0.4280.141 Electron/11.2.1 Safari/537.36" version="14.2.4" etag="QVbKAGh2uSuj6CUaCZEQ" type="embed">
    <diagram id="l9rU1Yr7nhKWrB-p30L8" name="Page-1">
        <mxGraphModel dx="966" dy="389" grid="1" gridSize="10" guides="1" tooltips="1" connect="1" arrows="1" fold="1" page="1" pageScale="1" pageWidth="827" pageHeight="1169" math="0" shadow="0">
            <root>
                <mxCell id="0"/>
                <mxCell id="1" parent="0"/>
                <mxCell id="3" value="id&lt;br&gt;{first name&lt;br&gt;last name&lt;br&gt;rank&lt;br&gt;suit size&lt;br&gt;helmet size&lt;br&gt;special skill&lt;br&gt;d.o.b}" style="shape=internalStorage;whiteSpace=wrap;html=1;backgroundOutline=1;" vertex="1" parent="1">
                    <mxGeometry x="150" y="40" width="220" height="180" as="geometry"/>
                </mxCell>
            </root>
        </mxGraphModel>
    </diagram>
</mxfile>